<svg preserveAspectRatio="none" width="100%" height="100%" overflow="visible" style="display: block;" viewBox="0 0 221.218 158.374" fill="none" xmlns="http://www.w3.org/2000/svg">
<g id="Group" opacity="0.5">
<path id="Vector" d="M0.0877059 127.851C0.209206 128.412 0.330806 128.973 0.452306 129.534C0.519006 129.842 0.619406 130.113 0.742006 130.356C2.67071 138.079 3.73231 145.939 3.90301 153.917C3.99241 158.092 10.4896 158.107 10.3999 153.917C10.1989 144.524 8.84521 135.182 6.35251 126.123C5.23751 122.071 -0.794094 123.78 0.0877059 127.851Z" fill="url(#paint0_linear_0_49)"/>
<path id="Vector_2" d="M57.2729 123.099C55.4111 122.566 53.9464 123.755 53.2769 125.368C49.3311 134.877 47.1321 144.967 46.6085 155.244C46.3956 159.423 52.8931 159.412 53.1054 155.244C53.5589 146.342 55.4662 137.641 58.651 129.337C58.7042 129.228 58.7543 129.117 58.7988 129.002C59.0464 128.366 59.2941 127.731 59.5417 127.095C60.1831 125.448 58.8352 123.546 57.2729 123.099Z" fill="url(#paint1_linear_0_49)"/>
<path id="Vector_3" d="M57.9858 105.216C59.8235 101.477 54.2221 98.1805 52.3759 101.937C47.9467 110.948 39.9432 118.916 29.3287 119.178C18.7164 119.439 11.7848 110.83 5.79871 103.239C4.70381 101.85 2.35401 102.114 1.20471 103.239C-0.170794 104.585 0.124406 106.463 1.20471 107.833C8.49101 117.073 17.2359 126.342 30.0345 125.647C42.6186 124.962 52.6112 116.15 57.9858 105.216Z" fill="url(#paint2_linear_0_49)"/>
<path id="Vector_4" d="M20.6855 96.1578C20.9797 96.4746 21.3282 96.6985 21.7309 96.8295C22.118 97.0329 22.5352 97.1261 22.9825 97.1093C23.2703 97.0706 23.5582 97.0319 23.8461 96.9932C24.3964 96.8389 24.8742 96.5604 25.2795 96.1578C25.4488 95.9386 25.6181 95.7195 25.7874 95.5004C26.0812 94.9937 26.2291 94.4472 26.2309 93.8608V93.5951C26.2478 93.1479 26.1545 92.7307 25.9511 92.3435C25.8201 91.9408 25.5962 91.5923 25.2794 91.2981C24.9852 90.9813 24.6367 90.7574 24.234 90.6264C23.8469 90.423 23.4297 90.3298 22.9824 90.3466C22.6945 90.3853 22.4067 90.424 22.1188 90.4627C21.5685 90.617 21.0907 90.8955 20.6854 91.2981C20.5161 91.5173 20.3468 91.7364 20.1775 91.9555C19.8837 92.4622 19.7358 93.0087 19.734 93.5951V93.8608C19.7171 94.308 19.8104 94.7252 20.0138 95.1124C20.1448 95.5151 20.3687 95.8636 20.6855 96.1578Z" fill="url(#paint3_linear_0_49)"/>
<path id="Vector_5" d="M36.9126 95.3359C37.2068 95.6527 37.5553 95.8766 37.958 96.0076C38.3451 96.211 38.7623 96.3042 39.2096 96.2874C39.6568 96.3043 40.074 96.211 40.4612 96.0076C40.8639 95.8766 41.2124 95.6527 41.5066 95.3359C41.6759 95.1168 41.8452 94.8976 42.0145 94.6785C42.3084 94.1718 42.4562 93.6253 42.458 93.0389C42.4405 92.9085 42.423 92.7782 42.4054 92.6478C42.4207 92.5171 42.4293 92.3847 42.4242 92.2484C42.4411 91.8012 42.3478 91.384 42.1444 90.9968C42.0134 90.5941 41.7895 90.2456 41.4727 89.9513C41.2535 89.782 41.0344 89.6127 40.8152 89.4434C40.3085 89.1496 39.762 89.0017 39.1756 88.9999C38.8877 89.0386 38.5999 89.0773 38.312 89.1159C37.7617 89.2702 37.2839 89.5487 36.8786 89.9513C36.3927 90.4168 36.1529 90.9257 35.9292 91.5402C35.8015 91.891 35.7708 92.2789 35.7674 92.6511C35.7616 93.2917 35.8767 93.5903 36.0963 94.1106C36.2923 94.5752 36.496 95.0001 36.9126 95.3359Z" fill="url(#paint4_linear_0_49)"/>
<path id="Vector_6" d="M97.3638 140.577C93.5439 145.449 86.4491 146.062 81.8408 141.875C80.8414 140.967 79.9811 139.881 79.2889 138.686C85.2709 140.749 92.085 139.721 96.2085 134.24C101.205 127.598 97.7114 118.34 90.0047 115.78C81.9627 113.108 73.811 119.073 71.6239 126.716C69.418 134.425 72.4881 143.02 78.8632 147.788C85.8038 152.978 96.4811 152.156 101.958 145.171C103.048 143.781 103.289 141.938 101.958 140.577C100.844 139.439 98.4444 139.199 97.3638 140.577ZM87.1041 121.727C89.6547 122.128 92.0478 124.4 92.1562 127.049C92.2669 129.752 89.9724 132.063 87.5637 132.894C84.0172 134.119 80.2954 132.488 77.4626 130.393C77.4567 130.388 77.4502 130.385 77.4443 130.381C77.6553 128.453 78.3371 126.59 79.5805 124.988C81.2998 122.774 84.2678 121.282 87.1041 121.727Z" fill="url(#paint5_linear_0_49)"/>
<path id="Vector_7" d="M129.053 118.447C124.821 116.16 119.135 115.352 114.773 117.697C113.474 118.395 112.449 119.314 111.635 120.379C111.546 119.757 111.458 119.134 111.37 118.512C111.123 116.779 108.909 115.814 107.374 116.244C105.507 116.767 104.856 118.489 105.105 120.24C106.371 129.147 107.637 138.055 108.902 146.962C109.412 150.547 115.765 149.733 115.283 146.098C114.489 140.108 114.096 133.507 115.422 127.559C115.903 125.401 116.757 123.538 119.062 122.954C120.377 122.621 121.73 122.78 123.03 123.107C123.556 123.239 124.088 123.396 124.605 123.581C124.301 125.366 125.328 127.503 127.677 127.652C129.93 127.795 131.712 126.093 132.149 123.97C132.645 121.557 131.075 119.54 129.053 118.447Z" fill="url(#paint6_linear_0_49)"/>
<path id="Vector_8" d="M159.155 142.964C155.419 144.539 151.196 146.524 147.03 145.879C143.066 145.266 141.022 142.343 141.11 138.428C141.187 135.004 142.782 131.686 145.169 129.269C146.357 128.066 147.729 127.064 149.267 126.352C150.063 125.984 150.971 125.632 151.847 125.521C151.952 125.507 152.097 125.506 152.238 125.509C151.56 126.906 152.381 128.813 153.636 129.565C155.293 130.558 157.024 129.789 158.08 128.4C160.023 125.845 158.935 121.957 156.385 120.241C153.455 118.268 149.853 119.042 146.835 120.359C141.238 122.801 136.879 127.918 135.281 133.81C133.606 139.984 135.075 147.36 141.067 150.625C147.519 154.141 154.595 151.88 160.882 149.228C162.491 148.55 163.668 147.079 163.151 145.232C162.725 143.713 160.787 142.275 159.155 142.964Z" fill="url(#paint7_linear_0_49)"/>
<path id="Vector_9" d="M220.274 147.279C218.934 145.91 217.044 146.191 215.68 147.279C213.306 149.174 209.889 150.532 206.837 149.796C203.908 149.09 202.431 146.357 201.648 143.669C199.74 137.13 200.876 128.945 195.223 124.014C192.408 121.558 188.629 121.212 185.53 123.355C182.704 125.309 180.717 128.719 179.297 131.785C179.286 131.808 179.277 131.83 179.267 131.853C178.936 122.297 179.086 112.725 179.722 103.173C180 98.9987 173.502 99.0157 173.225 103.173C172.116 119.823 172.477 136.53 174.304 153.117C174.765 157.311 180.287 157.268 180.8 153.117C181.606 146.61 182.452 139.727 185.512 133.829C186.222 132.459 187.02 131.069 188.012 129.88C188.987 128.711 189.809 127.838 191.098 129.032C193.337 131.104 193.69 135.057 194.08 137.904C194.934 144.145 195.993 151.335 202.023 154.8C208.044 158.259 215.225 155.904 220.274 151.874C221.656 150.77 221.404 148.434 220.274 147.279Z" fill="url(#paint8_linear_0_49)"/>
<path id="Vector_10" d="M37.2717 0H55.2906V46.8495C55.2906 53.4564 55.591 58.0615 56.1915 60.664C56.7923 63.2674 58.0433 65.2392 59.9455 66.5803C61.8471 67.9223 64.18 68.5924 66.9428 68.5924C69.9461 68.5924 72.328 67.8521 74.0906 66.37C75.8521 64.8891 76.9331 62.9267 77.3339 60.4839C77.7338 58.0419 77.9347 53.4969 77.9347 46.8495V0H93.0104V46.1288C93.0104 55.3391 92.4792 62.2061 91.419 66.7306C90.3576 71.2561 87.6546 75.1395 83.3105 78.3828C78.9652 81.6264 72.9887 83.248 65.3814 83.248C58.2534 83.248 52.6479 82.0559 48.5635 79.6741C44.4792 77.2923 41.5757 73.9486 39.8545 69.6435C38.1324 65.3396 37.2718 57.7415 37.2718 46.8494L37.2717 0Z" fill="url(#paint9_linear_0_49)"/>
<path id="Vector_11" d="M108.507 0H126.526V81.9867H108.507V0Z" fill="url(#paint10_linear_0_49)"/>
<path id="Vector_12" d="M132.833 0H183.947V15.3763H167.189V81.9866H149.17V15.3763H132.833V0Z" fill="url(#paint11_linear_0_49)"/>
</g>
<defs>
<linearGradient id="paint0_linear_0_49" x1="5.94502e-06" y1="140.431" x2="10.4008" y2="140.431" gradientUnits="userSpaceOnUse">
<stop stop-color="#F2A64C"/>
<stop offset="0.3069" stop-color="#A6A97C"/>
<stop offset="1" stop-color="#00B2E9"/>
</linearGradient>
<linearGradient id="paint1_linear_0_49" x1="46.6035" y1="140.672" x2="59.7053" y2="140.672" gradientUnits="userSpaceOnUse">
<stop stop-color="#F2A64C"/>
<stop offset="0.3069" stop-color="#A6A97C"/>
<stop offset="1" stop-color="#00B2E9"/>
</linearGradient>
<linearGradient id="paint2_linear_0_49" x1="0.280506" y1="112.982" x2="58.351" y2="112.982" gradientUnits="userSpaceOnUse">
<stop stop-color="#F2A64C"/>
<stop offset="0.3069" stop-color="#A6A97C"/>
<stop offset="1" stop-color="#00B2E9"/>
</linearGradient>
<linearGradient id="paint3_linear_0_49" x1="19.7321" y1="93.7279" x2="26.2329" y2="93.7279" gradientUnits="userSpaceOnUse">
<stop stop-color="#F2A64C"/>
<stop offset="0.3069" stop-color="#A6A97C"/>
<stop offset="1" stop-color="#00B2E9"/>
</linearGradient>
<linearGradient id="paint4_linear_0_49" x1="35.7675" y1="92.6447" x2="42.4581" y2="92.6447" gradientUnits="userSpaceOnUse">
<stop stop-color="#F2A64C"/>
<stop offset="0.3069" stop-color="#A6A97C"/>
<stop offset="1" stop-color="#00B2E9"/>
</linearGradient>
<linearGradient id="paint5_linear_0_49" x1="70.913" y1="133.134" x2="102.868" y2="133.134" gradientUnits="userSpaceOnUse">
<stop stop-color="#F2A64C"/>
<stop offset="0.3069" stop-color="#A6A97C"/>
<stop offset="1" stop-color="#00B2E9"/>
</linearGradient>
<linearGradient id="paint6_linear_0_49" x1="105.054" y1="132.708" x2="132.241" y2="132.708" gradientUnits="userSpaceOnUse">
<stop stop-color="#F2A64C"/>
<stop offset="0.3069" stop-color="#A6A97C"/>
<stop offset="1" stop-color="#00B2E9"/>
</linearGradient>
<linearGradient id="paint7_linear_0_49" x1="134.636" y1="135.736" x2="163.274" y2="135.736" gradientUnits="userSpaceOnUse">
<stop stop-color="#F2A64C"/>
<stop offset="0.3069" stop-color="#A6A97C"/>
<stop offset="1" stop-color="#00B2E9"/>
</linearGradient>
<linearGradient id="paint8_linear_0_49" x1="172.598" y1="128.261" x2="221.218" y2="128.261" gradientUnits="userSpaceOnUse">
<stop stop-color="#F2A64C"/>
<stop offset="0.3069" stop-color="#A6A97C"/>
<stop offset="1" stop-color="#00B2E9"/>
</linearGradient>
<linearGradient id="paint9_linear_0_49" x1="37.2717" y1="41.624" x2="93.0104" y2="41.624" gradientUnits="userSpaceOnUse">
<stop stop-color="#F2A64C"/>
<stop offset="0.3069" stop-color="#A6A97C"/>
<stop offset="1" stop-color="#00B2E9"/>
</linearGradient>
<linearGradient id="paint10_linear_0_49" x1="108.507" y1="40.9933" x2="126.526" y2="40.9933" gradientUnits="userSpaceOnUse">
<stop stop-color="#F2A64C"/>
<stop offset="0.3069" stop-color="#A6A97C"/>
<stop offset="1" stop-color="#00B2E9"/>
</linearGradient>
<linearGradient id="paint11_linear_0_49" x1="132.833" y1="40.9933" x2="183.947" y2="40.9933" gradientUnits="userSpaceOnUse">
<stop stop-color="#F2A64C"/>
<stop offset="0.3069" stop-color="#A6A97C"/>
<stop offset="1" stop-color="#00B2E9"/>
</linearGradient>
</defs>
</svg>
