<svg preserveAspectRatio="none" width="100%" height="100%" overflow="visible" style="display: block;" viewBox="0 0 390 80" fill="none" xmlns="http://www.w3.org/2000/svg">
<g id="Group" opacity="0.73">
<path id="Vector" d="M134.437 44.8014C134.577 45.4483 134.718 46.0953 134.858 46.7423C134.935 47.0975 135.051 47.41 135.193 47.6906C137.422 56.597 138.649 65.6608 138.846 74.8605C138.949 79.6746 146.458 79.6915 146.355 74.8605C146.122 64.0286 144.558 53.2561 141.677 42.8098C140.389 38.1371 133.418 40.1076 134.437 44.8014Z" fill="url(#paint0_linear_0_69)"/>
<path id="Vector_2" d="M200.526 39.322C198.375 38.7077 196.682 40.0779 195.908 41.9384C191.348 52.9037 188.807 64.5389 188.201 76.3908C187.955 81.2097 195.465 81.1965 195.71 76.3908C196.234 66.1253 198.439 56.091 202.119 46.5158C202.181 46.3897 202.238 46.2612 202.29 46.1293C202.576 45.3963 202.862 44.6631 203.148 43.9301C203.89 42.0311 202.332 39.8375 200.526 39.322Z" fill="url(#paint1_linear_0_69)"/>
<path id="Vector_3" d="M201.35 18.6996C203.474 14.388 197.001 10.5867 194.867 14.9182C189.748 25.3096 180.498 34.4983 168.231 34.7999C155.966 35.1016 147.955 25.1739 141.037 16.4196C139.772 14.8184 137.056 15.123 135.728 16.4196C134.138 17.9715 134.479 20.1374 135.728 21.7173C144.149 32.373 154.255 43.0621 169.047 42.2597C183.59 41.4707 195.139 31.3088 201.35 18.6996Z" fill="url(#paint2_linear_0_69)"/>
<path id="Vector_4" d="M158.242 8.25412C158.582 8.61943 158.985 8.87761 159.45 9.0287C159.897 9.2632 160.38 9.37078 160.897 9.3513C161.229 9.3067 161.562 9.2621 161.895 9.21749C162.531 9.03953 163.083 8.71838 163.551 8.25412C163.747 8.00139 163.943 7.74866 164.138 7.49598C164.478 6.9117 164.649 6.28147 164.651 5.60529V5.29886C164.67 4.78311 164.562 4.30202 164.327 3.8556C164.176 3.39119 163.917 2.98932 163.551 2.65003C163.211 2.28472 162.808 2.02654 162.343 1.87546C161.896 1.64095 161.413 1.53337 160.897 1.55285C160.564 1.59745 160.231 1.64205 159.898 1.68666C159.263 1.86462 158.71 2.18577 158.242 2.65003C158.046 2.90276 157.85 3.15549 157.655 3.40817C157.315 3.99245 157.144 4.62268 157.142 5.29886V5.60529C157.123 6.12104 157.231 6.60213 157.466 7.04855C157.617 7.51296 157.876 7.91483 158.242 8.25412Z" fill="url(#paint3_linear_0_69)"/>
<path id="Vector_5" d="M176.996 7.30638C177.336 7.67169 177.739 7.92986 178.204 8.08095C178.651 8.3155 179.134 8.42304 179.65 8.40356C180.167 8.42299 180.649 8.3155 181.097 8.08095C181.562 7.92986 181.965 7.67169 182.305 7.30638C182.501 7.0537 182.696 6.80097 182.892 6.54823C183.232 5.96396 183.403 5.33373 183.405 4.65755C183.384 4.50721 183.364 4.35692 183.344 4.20658C183.362 4.05589 183.372 3.90315 183.366 3.74602C183.385 3.23026 183.277 2.74918 183.042 2.30275C182.891 1.83834 182.632 1.43647 182.266 1.09713C182.013 0.901891 181.76 0.706648 181.506 0.511406C180.921 0.172566 180.289 0.00209777 179.611 0C179.279 0.0446026 178.946 0.0892051 178.613 0.133808C177.977 0.311768 177.425 0.632927 176.957 1.09718C176.395 1.63396 176.118 2.22089 175.86 2.92948C175.712 3.33405 175.676 3.78133 175.673 4.21052C175.666 4.94919 175.799 5.29362 176.053 5.89353C176.279 6.42926 176.514 6.91909 176.996 7.30638Z" fill="url(#paint4_linear_0_69)"/>
<path id="Vector_6" d="M246.86 59.4773C242.445 65.0949 234.246 65.8016 228.92 60.9732C227.765 59.9261 226.77 58.6737 225.971 57.2958C232.884 59.6755 240.759 58.49 245.525 52.1692C251.3 44.5097 247.262 33.8336 238.355 30.8816C229.061 27.8011 219.64 34.6793 217.112 43.4931C214.563 52.3826 218.111 62.2945 225.478 67.7921C233.5 73.7774 245.84 72.8294 252.169 64.775C253.43 63.1713 253.708 61.0466 252.169 59.4773C250.882 58.1646 248.109 57.8882 246.86 59.4773ZM235.003 37.7399C237.95 38.2017 240.716 40.8218 240.842 43.8765C240.969 46.994 238.318 49.6584 235.534 50.6176C231.435 52.0299 227.134 50.1494 223.86 47.7331C223.853 47.7281 223.846 47.7246 223.839 47.7196C224.083 45.4958 224.871 43.3475 226.308 41.5007C228.295 38.9469 231.725 37.2262 235.003 37.7399Z" fill="url(#paint5_linear_0_69)"/>
<path id="Vector_7" d="M283.484 33.9574C278.593 31.3202 272.021 30.3876 266.979 33.0919C265.479 33.897 264.294 34.9566 263.353 36.1848C263.251 35.4675 263.149 34.7502 263.046 34.0329C262.762 32.0344 260.203 30.9208 258.428 31.4166C256.271 32.0195 255.519 34.0053 255.806 36.0246C257.269 46.2964 258.732 56.5682 260.195 66.8399C260.784 70.9734 268.126 70.0348 267.57 65.8441C266.652 58.9366 266.197 51.3238 267.73 44.4645C268.286 41.9766 269.273 39.8279 271.937 39.1546C273.456 38.7706 275.02 38.9539 276.523 39.331C277.13 39.4834 277.745 39.6643 278.342 39.8779C277.992 41.9361 279.178 44.4011 281.893 44.5726C284.497 44.737 286.557 42.7748 287.061 40.3263C287.635 37.5439 285.82 35.2174 283.484 33.9574Z" fill="url(#paint6_linear_0_69)"/>
<path id="Vector_8" d="M318.273 62.229C313.955 64.0461 309.074 66.3342 304.26 65.5911C299.678 64.8839 297.316 61.5134 297.418 56.9984C297.507 53.0504 299.351 49.2245 302.109 46.4368C303.481 45.0491 305.067 43.8937 306.845 43.0733C307.764 42.6492 308.814 42.2424 309.827 42.1145C309.948 42.0992 310.115 42.0973 310.278 42.101C309.495 43.7124 310.444 45.9115 311.894 46.7781C313.81 47.9232 315.809 47.0361 317.03 45.4343C319.276 42.4885 318.018 38.0051 315.072 36.0257C311.685 33.7504 307.522 34.644 304.034 36.1625C297.566 38.9786 292.528 44.8792 290.681 51.6736C288.746 58.7933 290.443 67.2981 297.368 71.0636C304.825 75.1183 313.002 72.5115 320.269 69.4534C322.128 68.6707 323.488 66.9746 322.891 64.8453C322.399 63.0934 320.159 61.435 318.273 62.229Z" fill="url(#paint7_linear_0_69)"/>
<path id="Vector_9" d="M388.909 67.2059C387.36 65.6264 385.175 65.9508 383.599 67.2059C380.856 69.3905 376.906 70.9573 373.38 70.1084C369.995 69.2936 368.288 66.1421 367.382 63.043C365.178 55.5015 366.49 46.0635 359.957 40.3768C356.703 37.545 352.336 37.1455 348.754 39.6167C345.489 41.8706 343.193 45.8021 341.551 49.338C341.539 49.3641 341.528 49.3907 341.516 49.4168C341.134 38.3964 341.307 27.359 342.042 16.3432C342.363 11.53 334.853 11.5496 334.533 16.3432C333.252 35.5438 333.669 54.8101 335.78 73.9375C336.314 78.7742 342.695 78.7246 343.289 73.9375C344.219 66.4339 345.198 58.4967 348.733 51.6952C349.554 50.1153 350.477 48.513 351.623 47.1416C352.749 45.7927 353.7 44.7869 355.19 46.1629C357.778 48.553 358.186 53.1111 358.636 56.3937C359.623 63.5912 360.847 71.883 367.815 75.8778C374.774 79.8673 383.073 77.1508 388.909 72.5035C390.506 71.2314 390.214 68.5372 388.909 67.2059Z" fill="url(#paint8_linear_0_69)"/>
<path id="Vector_10" d="M0 9.01521H14.8666V47.5836C14.8666 53.0226 15.1144 56.8138 15.6099 58.9562C16.1055 61.0995 17.1377 62.7227 18.7071 63.8268C20.2761 64.9316 22.2009 65.4832 24.4803 65.4832C26.9582 65.4832 28.9234 64.8738 30.3776 63.6536C31.8309 62.4345 32.7229 60.819 33.0535 58.8079C33.3835 56.7976 33.5492 53.056 33.5492 47.5835V9.01521H45.9874V46.9902C45.9874 54.5725 45.5492 60.2256 44.6744 63.9504C43.7987 67.676 41.5686 70.873 37.9845 73.543C34.3993 76.2133 29.4684 77.5483 23.1919 77.5483C17.311 77.5483 12.6861 76.5669 9.31627 74.6061C5.94648 72.6453 3.5509 69.8926 2.13083 66.3485C0.71001 62.8054 0 56.5503 0 47.5836L0 9.01521Z" fill="url(#paint9_linear_0_69)"/>
<path id="Vector_11" d="M58.7731 9.01521H73.6396V76.5098H58.7731V9.01521Z" fill="url(#paint10_linear_0_69)"/>
<path id="Vector_12" d="M78.8431 9.01521H121.015V21.6736H107.189V76.5099H92.3223V21.6736H78.8431L78.8431 9.01521Z" fill="url(#paint11_linear_0_69)"/>
</g>
<defs>
<linearGradient id="paint0_linear_0_69" x1="134.335" y1="59.3089" x2="146.356" y2="59.3089" gradientUnits="userSpaceOnUse">
<stop stop-color="#F2A64C"/>
<stop offset="0.3069" stop-color="#A6A97C"/>
<stop offset="1" stop-color="#00B2E9"/>
</linearGradient>
<linearGradient id="paint1_linear_0_69" x1="188.196" y1="59.5867" x2="203.337" y2="59.5867" gradientUnits="userSpaceOnUse">
<stop stop-color="#F2A64C"/>
<stop offset="0.3069" stop-color="#A6A97C"/>
<stop offset="1" stop-color="#00B2E9"/>
</linearGradient>
<linearGradient id="paint2_linear_0_69" x1="134.66" y1="27.6548" x2="201.772" y2="27.6548" gradientUnits="userSpaceOnUse">
<stop stop-color="#F2A64C"/>
<stop offset="0.3069" stop-color="#A6A97C"/>
<stop offset="1" stop-color="#00B2E9"/>
</linearGradient>
<linearGradient id="paint3_linear_0_69" x1="157.14" y1="5.45205" x2="164.653" y2="5.45205" gradientUnits="userSpaceOnUse">
<stop stop-color="#F2A64C"/>
<stop offset="0.3069" stop-color="#A6A97C"/>
<stop offset="1" stop-color="#00B2E9"/>
</linearGradient>
<linearGradient id="paint4_linear_0_69" x1="175.672" y1="4.20288" x2="183.405" y2="4.20288" gradientUnits="userSpaceOnUse">
<stop stop-color="#F2A64C"/>
<stop offset="0.3069" stop-color="#A6A97C"/>
<stop offset="1" stop-color="#00B2E9"/>
</linearGradient>
<linearGradient id="paint5_linear_0_69" x1="216.29" y1="50.8938" x2="253.222" y2="50.8938" gradientUnits="userSpaceOnUse">
<stop stop-color="#F2A64C"/>
<stop offset="0.3069" stop-color="#A6A97C"/>
<stop offset="1" stop-color="#00B2E9"/>
</linearGradient>
<linearGradient id="paint6_linear_0_69" x1="255.747" y1="50.4023" x2="287.168" y2="50.4023" gradientUnits="userSpaceOnUse">
<stop stop-color="#F2A64C"/>
<stop offset="0.3069" stop-color="#A6A97C"/>
<stop offset="1" stop-color="#00B2E9"/>
</linearGradient>
<linearGradient id="paint7_linear_0_69" x1="289.936" y1="53.8946" x2="323.033" y2="53.8946" gradientUnits="userSpaceOnUse">
<stop stop-color="#F2A64C"/>
<stop offset="0.3069" stop-color="#A6A97C"/>
<stop offset="1" stop-color="#00B2E9"/>
</linearGradient>
<linearGradient id="paint8_linear_0_69" x1="333.808" y1="45.275" x2="390" y2="45.275" gradientUnits="userSpaceOnUse">
<stop stop-color="#F2A64C"/>
<stop offset="0.3069" stop-color="#A6A97C"/>
<stop offset="1" stop-color="#00B2E9"/>
</linearGradient>
<linearGradient id="paint9_linear_0_69" x1="0" y1="43.2818" x2="45.9875" y2="43.2818" gradientUnits="userSpaceOnUse">
<stop stop-color="#F2A64C"/>
<stop offset="0.3069" stop-color="#A6A97C"/>
<stop offset="1" stop-color="#00B2E9"/>
</linearGradient>
<linearGradient id="paint10_linear_0_69" x1="58.7731" y1="42.7625" x2="73.6396" y2="42.7625" gradientUnits="userSpaceOnUse">
<stop stop-color="#F2A64C"/>
<stop offset="0.3069" stop-color="#A6A97C"/>
<stop offset="1" stop-color="#00B2E9"/>
</linearGradient>
<linearGradient id="paint11_linear_0_69" x1="78.8431" y1="42.7625" x2="121.015" y2="42.7625" gradientUnits="userSpaceOnUse">
<stop stop-color="#F2A64C"/>
<stop offset="0.3069" stop-color="#A6A97C"/>
<stop offset="1" stop-color="#00B2E9"/>
</linearGradient>
</defs>
</svg>
