<svg xmlns="http://www.w3.org/2000/svg" fill="none" viewBox="126.67200000000001 0 83.07 83.1219512195122" style="max-height: 500px" width="83.07" height="83.1219512195122">
<g clip-path="url(#clip0_17_4151)">
<g opacity="0.73">
<path fill="url(#paint0_linear_17_4151)" d="M134.437 44.8013C134.577 45.4483 134.718 46.0953 134.858 46.7423C134.935 47.0975 135.051 47.4099 135.193 47.6906C137.422 56.597 138.649 65.6608 138.846 74.8605C138.949 79.6746 146.458 79.6914 146.355 74.8605C146.122 64.0286 144.558 53.2561 141.677 42.8097C140.389 38.1371 133.418 40.1076 134.437 44.8013Z"/>
<path fill="url(#paint1_linear_17_4151)" d="M200.526 39.3221C198.375 38.7077 196.682 40.078 195.908 41.9384C191.348 52.9037 188.807 64.539 188.201 76.3909C187.955 81.2097 195.465 81.1965 195.71 76.3909C196.234 66.1253 198.439 56.091 202.119 46.5159C202.181 46.3897 202.238 46.2613 202.29 46.1294C202.576 45.3963 202.862 44.6632 203.148 43.9301C203.89 42.0312 202.332 39.8376 200.526 39.3221Z"/>
<path fill="url(#paint2_linear_17_4151)" d="M201.35 18.6997C203.474 14.3881 197.001 10.5869 194.867 14.9183C189.748 25.3097 180.498 34.4984 168.231 34.8C155.966 35.1017 147.955 25.174 141.037 16.4197C139.771 14.8185 137.056 15.1231 135.728 16.4197C134.138 17.9716 134.479 20.1375 135.728 21.7174C144.148 32.3731 154.255 43.0622 169.046 42.2598C183.59 41.4708 195.139 31.309 201.35 18.6997Z"/>
<path fill="url(#paint3_linear_17_4151)" d="M158.242 8.25405C158.582 8.61936 158.985 8.87753 159.45 9.02862C159.898 9.26312 160.38 9.37071 160.897 9.35123C161.229 9.30663 161.562 9.26203 161.895 9.21742C162.531 9.03946 163.083 8.7183 163.551 8.25405C163.747 8.00132 163.943 7.74859 164.138 7.4959C164.478 6.91163 164.649 6.2814 164.651 5.60522V5.29879C164.67 4.78304 164.563 4.30195 164.328 3.85553C164.176 3.39112 163.917 2.98925 163.551 2.64996C163.211 2.28465 162.808 2.02647 162.343 1.87538C161.896 1.64088 161.413 1.5333 160.897 1.55278C160.564 1.59738 160.231 1.64198 159.899 1.68658C159.263 1.86455 158.71 2.1857 158.242 2.64996C158.046 2.90269 157.851 3.15542 157.655 3.4081C157.315 3.99238 157.144 4.62261 157.142 5.29879V5.60522C157.123 6.12097 157.231 6.60206 157.466 7.04848C157.617 7.51289 157.876 7.91476 158.242 8.25405Z"/>
<path fill="url(#paint4_linear_17_4151)" d="M176.996 7.30638C177.336 7.67169 177.739 7.92986 178.204 8.08095C178.651 8.3155 179.134 8.42304 179.65 8.40356C180.167 8.42299 180.65 8.3155 181.097 8.08095C181.562 7.92986 181.965 7.67169 182.305 7.30638C182.501 7.0537 182.697 6.80097 182.892 6.54823C183.232 5.96396 183.403 5.33373 183.405 4.65755C183.385 4.50721 183.364 4.35692 183.344 4.20658C183.362 4.05589 183.372 3.90315 183.366 3.74602C183.385 3.23026 183.277 2.74918 183.042 2.30275C182.891 1.83834 182.632 1.43647 182.266 1.09713C182.013 0.901891 181.76 0.706648 181.506 0.511406C180.921 0.172566 180.289 0.00209777 179.611 0C179.279 0.0446026 178.946 0.0892051 178.613 0.133808C177.977 0.311768 177.425 0.632927 176.957 1.09718C176.395 1.63396 176.118 2.22089 175.86 2.92948C175.712 3.33405 175.676 3.78133 175.673 4.21052C175.666 4.94919 175.799 5.29362 176.053 5.89353C176.279 6.42926 176.514 6.91909 176.996 7.30638Z"/>
<path fill="url(#paint5_linear_17_4151)" d="M246.86 59.4773C242.445 65.0949 234.246 65.8016 228.92 60.9732C227.765 59.926 226.77 58.6737 225.97 57.2957C232.884 59.6755 240.759 58.49 245.525 52.1692C251.299 44.5097 247.261 33.8335 238.355 30.8815C229.061 27.8011 219.64 34.6792 217.112 43.4931C214.562 52.3826 218.111 62.2945 225.478 67.7921C233.5 73.7774 245.84 72.8294 252.169 64.775C253.43 63.1712 253.708 61.0465 252.169 59.4773C250.882 58.1646 248.109 57.8882 246.86 59.4773ZM235.003 37.7398C237.95 38.2017 240.716 40.8218 240.841 43.8765C240.969 46.9939 238.318 49.6584 235.534 50.6176C231.435 52.0298 227.134 50.1494 223.86 47.7331C223.853 47.7281 223.846 47.7246 223.839 47.7196C224.083 45.4957 224.87 43.3475 226.307 41.5007C228.294 38.9469 231.725 37.2262 235.003 37.7398Z"/>
<path fill="url(#paint6_linear_17_4151)" d="M283.484 33.9575C278.593 31.3203 272.021 30.3877 266.979 33.092C265.479 33.8971 264.294 34.9567 263.353 36.1849C263.251 35.4676 263.149 34.7503 263.046 34.033C262.762 32.0345 260.203 30.9209 258.428 31.4167C256.271 32.0196 255.518 34.0054 255.806 36.0247C257.269 46.2965 258.732 56.5683 260.195 66.84C260.784 70.9735 268.126 70.0349 267.57 65.8442C266.652 58.9367 266.197 51.3239 267.73 44.4646C268.286 41.9767 269.273 39.828 271.937 39.1547C273.456 38.7707 275.02 38.954 276.523 39.3311C277.13 39.4835 277.745 39.6644 278.342 39.878C277.992 41.9362 279.178 44.4012 281.893 44.5727C284.497 44.7371 286.557 42.7749 287.061 40.3264C287.634 37.544 285.82 35.2175 283.484 33.9575Z"/>
<path fill="url(#paint7_linear_17_4151)" d="M318.272 62.229C313.955 64.0462 309.074 66.3342 304.26 65.5911C299.678 64.8839 297.316 61.5134 297.418 56.9984C297.507 53.0504 299.351 49.2245 302.108 46.4368C303.481 45.0492 305.067 43.8937 306.845 43.0733C307.764 42.6492 308.814 42.2424 309.827 42.1145C309.948 42.0992 310.115 42.0974 310.278 42.1011C309.495 43.7124 310.444 45.9115 311.894 46.7782C313.809 47.9232 315.809 47.0361 317.03 45.4343C319.276 42.4885 318.018 38.0052 315.072 36.0257C311.685 33.7505 307.522 34.644 304.034 36.1626C297.566 38.9787 292.528 44.8792 290.681 51.6737C288.746 58.7934 290.443 67.2981 297.368 71.0636C304.825 75.1184 313.002 72.5115 320.269 69.4534C322.128 68.6707 323.488 66.9746 322.891 64.8454C322.399 63.0934 320.159 61.435 318.272 62.229Z"/>
<path fill="url(#paint8_linear_17_4151)" d="M388.909 67.2059C387.36 65.6265 385.175 65.9509 383.599 67.2059C380.856 69.3906 376.906 70.9573 373.38 70.1085C369.995 69.2937 368.288 66.1422 367.382 63.0431C365.178 55.5015 366.491 46.0636 359.957 40.3769C356.704 37.5451 352.336 37.1456 348.755 39.6168C345.489 41.8706 343.193 45.8022 341.551 49.338C341.539 49.3642 341.528 49.3907 341.516 49.4169C341.134 38.3964 341.307 27.3591 342.042 16.3433C342.363 11.5301 334.853 11.5497 334.533 16.3433C333.252 35.5439 333.669 54.8102 335.78 73.9376C336.314 78.7743 342.695 78.7247 343.289 73.9376C344.22 66.434 345.198 58.4967 348.733 51.6952C349.554 50.1154 350.477 48.5131 351.623 47.1417C352.75 45.7928 353.7 44.787 355.19 46.163C357.778 48.5531 358.186 53.1111 358.636 56.3937C359.623 63.5912 360.847 71.8831 367.815 75.8779C374.774 79.8674 383.073 77.1509 388.909 72.5035C390.506 71.2315 390.214 68.5373 388.909 67.2059Z"/>
<path fill="url(#paint9_linear_17_4151)" d="M0 9.01514H14.8666V47.5835C14.8666 53.0225 15.1144 56.8137 15.6099 58.9562C16.1055 61.0994 17.1377 62.7227 18.7071 63.8267C20.2761 64.9315 22.2009 65.4832 24.4803 65.4832C26.9582 65.4832 28.9234 64.8737 30.3776 63.6536C31.8309 62.4344 32.7229 60.8189 33.0535 58.8079C33.3835 56.7976 33.5492 53.0559 33.5492 47.5835V9.01514H45.9874V46.9901C45.9874 54.5724 45.5492 60.2256 44.6744 63.9504C43.7987 67.6759 41.5686 70.8729 37.9845 73.5429C34.3993 76.2132 29.4684 77.5482 23.1919 77.5482C17.311 77.5482 12.6861 76.5668 9.31627 74.606C5.94648 72.6452 3.5509 69.8925 2.13083 66.3484C0.71001 62.8053 0 56.5503 0 47.5835L0 9.01514Z"/>
<path fill="url(#paint10_linear_17_4151)" d="M58.7729 9.01514H73.6395V76.5097H58.7729V9.01514Z"/>
<path fill="url(#paint11_linear_17_4151)" d="M78.843 9.01514H121.015V21.6736H107.189V76.5098H92.3223V21.6736H78.8431L78.843 9.01514Z"/>
</g>
</g>
<defs>
<linearGradient gradientUnits="userSpaceOnUse" y2="59.3088" x2="146.356" y1="59.3088" x1="134.335" id="paint0_linear_17_4151">
<stop stop-color="#F2A64C"/>
<stop stop-color="#A6A97C" offset="0.3069"/>
<stop stop-color="#00B2E9" offset="1"/>
</linearGradient>
<linearGradient gradientUnits="userSpaceOnUse" y2="59.5867" x2="203.337" y1="59.5867" x1="188.196" id="paint1_linear_17_4151">
<stop stop-color="#F2A64C"/>
<stop stop-color="#A6A97C" offset="0.3069"/>
<stop stop-color="#00B2E9" offset="1"/>
</linearGradient>
<linearGradient gradientUnits="userSpaceOnUse" y2="27.6549" x2="201.772" y1="27.6549" x1="134.659" id="paint2_linear_17_4151">
<stop stop-color="#F2A64C"/>
<stop stop-color="#A6A97C" offset="0.3069"/>
<stop stop-color="#00B2E9" offset="1"/>
</linearGradient>
<linearGradient gradientUnits="userSpaceOnUse" y2="5.45198" x2="164.653" y1="5.45198" x1="157.14" id="paint3_linear_17_4151">
<stop stop-color="#F2A64C"/>
<stop stop-color="#A6A97C" offset="0.3069"/>
<stop stop-color="#00B2E9" offset="1"/>
</linearGradient>
<linearGradient gradientUnits="userSpaceOnUse" y2="4.20288" x2="183.405" y1="4.20288" x1="175.672" id="paint4_linear_17_4151">
<stop stop-color="#F2A64C"/>
<stop stop-color="#A6A97C" offset="0.3069"/>
<stop stop-color="#00B2E9" offset="1"/>
</linearGradient>
<linearGradient gradientUnits="userSpaceOnUse" y2="50.8937" x2="253.221" y1="50.8937" x1="216.29" id="paint5_linear_17_4151">
<stop stop-color="#F2A64C"/>
<stop stop-color="#A6A97C" offset="0.3069"/>
<stop stop-color="#00B2E9" offset="1"/>
</linearGradient>
<linearGradient gradientUnits="userSpaceOnUse" y2="50.4024" x2="287.168" y1="50.4024" x1="255.747" id="paint6_linear_17_4151">
<stop stop-color="#F2A64C"/>
<stop stop-color="#A6A97C" offset="0.3069"/>
<stop stop-color="#00B2E9" offset="1"/>
</linearGradient>
<linearGradient gradientUnits="userSpaceOnUse" y2="53.8947" x2="323.033" y1="53.8947" x1="289.935" id="paint7_linear_17_4151">
<stop stop-color="#F2A64C"/>
<stop stop-color="#A6A97C" offset="0.3069"/>
<stop stop-color="#00B2E9" offset="1"/>
</linearGradient>
<linearGradient gradientUnits="userSpaceOnUse" y2="45.2751" x2="390" y1="45.2751" x1="333.808" id="paint8_linear_17_4151">
<stop stop-color="#F2A64C"/>
<stop stop-color="#A6A97C" offset="0.3069"/>
<stop stop-color="#00B2E9" offset="1"/>
</linearGradient>
<linearGradient gradientUnits="userSpaceOnUse" y2="43.2817" x2="45.9875" y1="43.2817" x1="0" id="paint9_linear_17_4151">
<stop stop-color="#F2A64C"/>
<stop stop-color="#A6A97C" offset="0.3069"/>
<stop stop-color="#00B2E9" offset="1"/>
</linearGradient>
<linearGradient gradientUnits="userSpaceOnUse" y2="42.7624" x2="73.6395" y1="42.7624" x1="58.7729" id="paint10_linear_17_4151">
<stop stop-color="#F2A64C"/>
<stop stop-color="#A6A97C" offset="0.3069"/>
<stop stop-color="#00B2E9" offset="1"/>
</linearGradient>
<linearGradient gradientUnits="userSpaceOnUse" y2="42.7624" x2="121.015" y1="42.7624" x1="78.843" id="paint11_linear_17_4151">
<stop stop-color="#F2A64C"/>
<stop stop-color="#A6A97C" offset="0.3069"/>
<stop stop-color="#00B2E9" offset="1"/>
</linearGradient>
<clipPath id="clip0_17_4151">
<rect fill="white" height="80" width="390"/>
</clipPath>
</defs>
</svg>