<svg preserveAspectRatio="none" width="100%" height="100%" overflow="visible" style="display: block;" viewBox="0 0 120 120" fill="none" xmlns="http://www.w3.org/2000/svg">
<foreignObject x="-1.90735e-06" y="-1.90735e-06" width="120" height="120"><div xmlns="http://www.w3.org/1999/xhtml" style="backdrop-filter:blur(2px);clip-path:url(#bgblur_0_0_17_clip_path);height:100%;width:100%"></div></foreignObject><g id="Ellipse 10" filter="url(#filter0_ddii_0_17)" data-figma-bg-blur-radius="4">
<mask id="path-1-outside-1_0_17" maskUnits="userSpaceOnUse" x="47.1504" y="46.392" width="48" height="48" fill="black">
<rect fill="white" x="47.1504" y="46.392" width="48" height="48"/>
<path d="M94.1504 70.392C94.1504 83.0945 83.8529 93.392 71.1504 93.392C58.4478 93.392 48.1504 83.0945 48.1504 70.392C48.1504 57.6894 58.4478 47.392 71.1504 47.392C83.8529 47.392 94.1504 57.6894 94.1504 70.392Z"/>
</mask>
<path d="M94.1504 70.392C94.1504 83.0945 83.8529 93.392 71.1504 93.392C58.4478 93.392 48.1504 83.0945 48.1504 70.392C48.1504 57.6894 58.4478 47.392 71.1504 47.392C83.8529 47.392 94.1504 57.6894 94.1504 70.392Z" fill="var(--fill-0, white)" fill-opacity="0.016" style="mix-blend-mode:plus-lighter"/>
<g clip-path="url(#paint0_angular_0_17_clip_path)" data-figma-skip-parse="true" mask="url(#path-1-outside-1_0_17)"><g transform="matrix(0.023 0 0 0.023 48.1504 47.392)"><foreignObject x="-2043.48" y="-2043.48" width="4086.96" height="4086.96"><div xmlns="http://www.w3.org/1999/xhtml" style="background:conic-gradient(from 90deg,rgba(255, 255, 255, 0.1431) 0deg,rgba(255, 255, 255, 0.274) 42.9837deg,rgba(255, 255, 255, 0) 132.984deg,rgba(255, 255, 255, 0.274) 222.984deg,rgba(255, 255, 255, 0) 312.984deg,rgba(255, 255, 255, 0.1431) 360deg);height:100%;width:100%;opacity:1"></div></foreignObject></g></g><path d="M94.1504 70.392H93.1504C93.1504 82.5423 83.3007 92.392 71.1504 92.392V93.392V94.392C84.4052 94.392 95.1504 83.6468 95.1504 70.392H94.1504ZM71.1504 93.392V92.392C59.0001 92.392 49.1504 82.5423 49.1504 70.392H48.1504H47.1504C47.1504 83.6468 57.8956 94.392 71.1504 94.392V93.392ZM48.1504 70.392H49.1504C49.1504 58.2417 59.0001 48.392 71.1504 48.392V47.392V46.392C57.8956 46.392 47.1504 57.1372 47.1504 70.392H48.1504ZM71.1504 47.392V48.392C83.3007 48.392 93.1504 58.2417 93.1504 70.392H94.1504H95.1504C95.1504 57.1372 84.4052 46.392 71.1504 46.392V47.392Z" data-figma-gradient-fill="{&#34;type&#34;:&#34;GRADIENT_ANGULAR&#34;,&#34;stops&#34;:[{&#34;color&#34;:{&#34;r&#34;:1.0,&#34;g&#34;:1.0,&#34;b&#34;:1.0,&#34;a&#34;:0.27399998903274536},&#34;position&#34;:0.11939926445484161},{&#34;color&#34;:{&#34;r&#34;:1.0,&#34;g&#34;:1.0,&#34;b&#34;:1.0,&#34;a&#34;:0.0},&#34;position&#34;:0.36939927935600281},{&#34;color&#34;:{&#34;r&#34;:1.0,&#34;g&#34;:1.0,&#34;b&#34;:1.0,&#34;a&#34;:0.27399998903274536},&#34;position&#34;:0.61939924955368042},{&#34;color&#34;:{&#34;r&#34;:1.0,&#34;g&#34;:1.0,&#34;b&#34;:1.0,&#34;a&#34;:0.0},&#34;position&#34;:0.86939924955368042}],&#34;stopsVar&#34;:[{&#34;color&#34;:{&#34;r&#34;:1.0,&#34;g&#34;:1.0,&#34;b&#34;:1.0,&#34;a&#34;:0.27399998903274536},&#34;position&#34;:0.11939926445484161},{&#34;color&#34;:{&#34;r&#34;:1.0,&#34;g&#34;:1.0,&#34;b&#34;:1.0,&#34;a&#34;:0.0},&#34;position&#34;:0.36939927935600281},{&#34;color&#34;:{&#34;r&#34;:1.0,&#34;g&#34;:1.0,&#34;b&#34;:1.0,&#34;a&#34;:0.27399998903274536},&#34;position&#34;:0.61939924955368042},{&#34;color&#34;:{&#34;r&#34;:1.0,&#34;g&#34;:1.0,&#34;b&#34;:1.0,&#34;a&#34;:0.0},&#34;position&#34;:0.86939924955368042}],&#34;transform&#34;:{&#34;m00&#34;:46.0,&#34;m01&#34;:0.0,&#34;m02&#34;:25.150398254394531,&#34;m10&#34;:0.0,&#34;m11&#34;:46.0,&#34;m12&#34;:24.391998291015625},&#34;opacity&#34;:1.0,&#34;blendMode&#34;:&#34;LINEAR_DODGE&#34;,&#34;visible&#34;:true}" style="mix-blend-mode:plus-lighter" mask="url(#path-1-outside-1_0_17)"/>
</g>
<defs>
<filter id="filter0_ddii_0_17" x="-1.90735e-06" y="-1.90735e-06" width="120" height="120" filterUnits="userSpaceOnUse" color-interpolation-filters="sRGB">
<feFlood flood-opacity="0" result="BackgroundImageFix"/>
<feColorMatrix in="SourceAlpha" type="matrix" values="0 0 0 0 0 0 0 0 0 0 0 0 0 0 0 0 0 0 127 0" result="hardAlpha"/>
<feMorphology radius="8" operator="erode" in="SourceAlpha" result="effect1_dropShadow_0_17"/>
<feOffset dx="-1.8584" dy="-1.732"/>
<feGaussianBlur stdDeviation="6"/>
<feColorMatrix type="matrix" values="0 0 0 0 0 0 0 0 0 0 0 0 0 0 0 0 0 0 0.15 0"/>
<feBlend mode="plus-darker" in2="BackgroundImageFix" result="effect1_dropShadow_0_17"/>
<feColorMatrix in="SourceAlpha" type="matrix" values="0 0 0 0 0 0 0 0 0 0 0 0 0 0 0 0 0 0 127 0" result="hardAlpha"/>
<feMorphology radius="12" operator="erode" in="SourceAlpha" result="effect2_dropShadow_0_17"/>
<feOffset dx="-11.1504" dy="-10.392"/>
<feGaussianBlur stdDeviation="24"/>
<feColorMatrix type="matrix" values="0 0 0 0 0 0 0 0 0 0 0 0 0 0 0 0 0 0 0.15 0"/>
<feBlend mode="plus-darker" in2="effect1_dropShadow_0_17" result="effect2_dropShadow_0_17"/>
<feBlend mode="normal" in="SourceGraphic" in2="effect2_dropShadow_0_17" result="shape"/>
<feColorMatrix in="SourceAlpha" type="matrix" values="0 0 0 0 0 0 0 0 0 0 0 0 0 0 0 0 0 0 127 0" result="hardAlpha"/>
<feOffset dx="0.9292" dy="0.866"/>
<feGaussianBlur stdDeviation="2"/>
<feComposite in2="hardAlpha" operator="arithmetic" k2="-1" k3="1"/>
<feColorMatrix type="matrix" values="0 0 0 0 1 0 0 0 0 1 0 0 0 0 1 0 0 0 0.087 0"/>
<feBlend mode="plus-lighter" in2="shape" result="effect3_innerShadow_0_17"/>
<feColorMatrix in="SourceAlpha" type="matrix" values="0 0 0 0 0 0 0 0 0 0 0 0 0 0 0 0 0 0 127 0" result="hardAlpha"/>
<feOffset dx="1.8584" dy="1.732"/>
<feGaussianBlur stdDeviation="4"/>
<feComposite in2="hardAlpha" operator="arithmetic" k2="-1" k3="1"/>
<feColorMatrix type="matrix" values="0 0 0 0 1 0 0 0 0 1 0 0 0 0 1 0 0 0 0.087 0"/>
<feBlend mode="plus-lighter" in2="effect3_innerShadow_0_17" result="effect4_innerShadow_0_17"/>
</filter>
<clipPath id="bgblur_0_0_17_clip_path" transform="translate(1.90735e-06 1.90735e-06)"><path d="M94.1504 70.392C94.1504 83.0945 83.8529 93.392 71.1504 93.392C58.4478 93.392 48.1504 83.0945 48.1504 70.392C48.1504 57.6894 58.4478 47.392 71.1504 47.392C83.8529 47.392 94.1504 57.6894 94.1504 70.392Z"/>
</clipPath><clipPath id="paint0_angular_0_17_clip_path"><path d="M94.1504 70.392H93.1504C93.1504 82.5423 83.3007 92.392 71.1504 92.392V93.392V94.392C84.4052 94.392 95.1504 83.6468 95.1504 70.392H94.1504ZM71.1504 93.392V92.392C59.0001 92.392 49.1504 82.5423 49.1504 70.392H48.1504H47.1504C47.1504 83.6468 57.8956 94.392 71.1504 94.392V93.392ZM48.1504 70.392H49.1504C49.1504 58.2417 59.0001 48.392 71.1504 48.392V47.392V46.392C57.8956 46.392 47.1504 57.1372 47.1504 70.392H48.1504ZM71.1504 47.392V48.392C83.3007 48.392 93.1504 58.2417 93.1504 70.392H94.1504H95.1504C95.1504 57.1372 84.4052 46.392 71.1504 46.392V47.392Z" mask="url(#path-1-outside-1_0_17)"/></clipPath></defs>
</svg>
