<svg width="236" height="321" viewBox="0 0 236 321" fill="none" xmlns="http://www.w3.org/2000/svg">
<g clip-path="url(#clip0_40_12766)">
<path d="M141.654 314.467C138.431 314.467 134.192 314.222 129.978 312.305C128.024 311.416 126.28 310.272 124.754 308.876C124.322 309.047 123.88 309.189 123.43 309.3C118.434 311.299 112.799 312.315 106.689 312.315C104.055 312.315 101.28 312.126 98.4403 311.753C85.264 310.023 69.1988 306.138 61.8651 291.325C60.8328 289.239 59.9941 287.076 59.3212 284.755C56.8709 281.904 55.3383 278.394 54.7299 274.253C52.6996 274.877 50.6597 275.284 48.5946 275.481C47.7501 275.561 46.8933 275.602 46.0469 275.602C37.9494 275.602 30.4171 271.907 25.8989 265.719C21.6665 259.924 20.2021 252.048 21.6431 242.89C20.5814 241.039 19.7325 238.8 19.7184 236.131C19.6961 231.96 21.8295 228.794 23.3875 226.484C23.6083 226.156 23.8241 225.837 24.0233 225.524C25.5406 223.145 27.1368 220.76 28.7712 218.431C30.8129 214.338 33.2231 210.488 35.9688 206.928C25.181 199.673 16.9435 190.364 11.9106 179.662C4.20515 163.282 4.80277 143.748 13.2401 128.898C9.8274 112.502 13.4882 94.5879 23.4391 79.3703C28.476 71.6664 35.1656 64.642 43.0931 58.6815C41.2398 57.3476 39.5175 55.8598 37.9335 54.2222C34.209 50.3715 28.1603 42.5261 29.4923 33.2382C30.2069 28.2577 33.4509 21.2887 44.8446 16.3753C51.3713 13.56 58.7235 12.1916 67.3212 12.1916C72.808 12.1916 78.8071 12.7626 85.661 13.9364C97.3767 15.9433 107.278 20.328 114.725 26.7502C122.822 18.0206 131.799 12.0397 141.486 8.93291C146.453 7.34052 151.585 6.53296 156.741 6.53296C166.445 6.53296 175.277 9.38588 182.282 14.7842C193.475 23.4087 199.622 40.2071 190.533 53.3897C188.046 56.9966 184.734 59.7118 180.632 61.5159C196.236 75.4123 207.309 93.9072 212.137 114.371C212.411 115.533 212.914 117.668 212.683 120.087C220.622 125.817 226.091 134.141 228.33 144.06C231.487 158.047 227.852 174.113 218.844 185.99C214.547 191.658 209.324 196.567 203 200.866C205.506 204.282 208.126 208.039 210.551 211.996C213.454 216.734 216.731 222.084 217.939 228.299C217.975 228.487 218.005 228.67 218.032 228.852C221.783 238.496 222.228 246.662 219.399 253.793C216.097 262.116 208.829 268.295 200.433 269.922C198.798 270.238 197.121 270.399 195.447 270.399C195.447 270.399 195.285 270.397 195.204 270.397C195.214 270.798 195.218 271.199 195.217 271.599C195.285 272.107 195.309 272.62 195.288 273.13C195.324 273.933 195.248 274.733 195.069 275.502C196.026 279.743 196.954 284.805 195.834 290.111C194.659 295.659 191.231 300.414 185.644 304.246C178.858 308.902 170.312 311.786 158.751 313.324C154.728 313.858 150.414 314.203 145.565 314.375C144.195 314.424 142.923 314.467 141.654 314.467Z" fill="#34A853"/>
<path d="M156.742 13.0655C164.455 13.0655 172.131 15.2013 178.311 19.9631C187.199 26.8119 192.085 39.648 185.172 49.6756C181.624 54.8221 175.974 56.9303 169.947 57.4847C168.291 57.637 166.619 57.7176 164.941 57.7414C166.805 58.9497 168.631 60.2172 170.404 61.5571C187.981 74.8382 200.729 94.4038 205.795 115.876C206.221 117.682 206.567 119.697 205.639 121.304C205.312 121.869 204.869 122.297 204.361 122.638C204.403 122.659 204.446 122.674 204.488 122.696C226.884 134.262 227.587 163.667 213.656 182.038C208.023 189.466 200.817 195.062 192.814 199.434C193.005 199.449 193.193 199.479 193.373 199.543C193.53 199.591 193.682 199.663 193.829 199.753C193.846 199.766 193.864 199.777 193.881 199.791C194.07 199.916 194.25 200.069 194.406 200.274C198.138 205.176 201.776 210.159 204.997 215.416C207.654 219.753 210.558 224.488 211.541 229.549C211.604 229.871 211.629 230.184 211.672 230.501C214.318 237.042 216.04 244.583 213.343 251.38C210.965 257.372 205.606 262.267 199.196 263.508C197.954 263.749 196.698 263.867 195.446 263.867C192.778 263.867 190.13 263.332 187.681 262.312C188.389 265.512 188.744 268.785 188.695 272.081C188.695 272.102 188.689 272.12 188.688 272.141C188.782 272.464 188.805 272.81 188.748 273.142C188.856 273.778 188.686 274.464 188.244 274.928C188.291 275.128 188.339 275.328 188.386 275.528C189.39 279.859 190.396 284.319 189.457 288.758C188.536 293.113 185.529 296.41 181.963 298.856C174.969 303.654 166.172 305.748 157.894 306.849C153.726 307.403 149.535 307.697 145.334 307.847C144.112 307.89 142.882 307.935 141.654 307.935C138.579 307.935 135.521 307.653 132.671 306.357C129.237 304.796 127.067 302.205 125.7 299.144C125.306 299.834 124.882 300.511 124.4 301.159C123.614 302.216 122.608 302.898 121.418 303.04C121.299 303.098 121.185 303.164 121.061 303.214C116.48 305.056 111.591 305.783 106.688 305.783C104.212 305.783 101.732 305.597 99.2866 305.276C87.2229 303.692 73.5691 300.271 67.7032 288.422C66.5737 286.14 65.7674 283.815 65.185 281.46C60.3963 276.951 60.401 270.02 61.5722 263.648C57.4978 266.424 53.0235 268.498 47.9792 268.977C47.3348 269.038 46.6901 269.069 46.0462 269.069C40.2693 269.069 34.6279 266.613 31.1576 261.861C27.2449 256.503 27.1036 249.355 28.2207 243.074C28.3155 242.541 28.4413 242.02 28.5572 241.495C27.3371 239.9 26.2466 238.131 26.2356 236.096C26.2215 233.498 28.1876 231.124 29.5148 229.042C31.0669 226.607 32.6767 224.209 34.341 221.85C34.3559 221.829 34.3713 221.808 34.3861 221.787C37.0294 216.387 40.4207 211.357 44.5067 206.907C44.6535 206.747 44.8097 206.633 44.9686 206.538C45.2697 206.062 45.755 205.683 46.3272 205.545C34.1917 199.049 23.7833 189.586 17.8051 176.877C10.7348 161.846 11.3119 143.262 20.4748 129.585C20.3485 129.602 20.2218 129.617 20.0955 129.634C16.1169 113.832 19.9769 96.582 28.8894 82.9511C35.6726 72.5768 45.1838 64.2223 55.9354 58.0063C50.9605 56.2892 46.3657 53.5544 42.6121 49.6743C38.7574 45.6895 35.1125 39.9569 35.9431 34.1682C36.7952 28.2286 42.3388 24.5671 47.42 22.3758C53.636 19.695 60.4585 18.7242 67.3217 18.7242C73.1558 18.7242 79.0193 19.4259 84.5633 20.3755C96.1709 22.3639 107.499 27.1429 115.061 36.4002C122.492 26.9561 131.906 18.8645 143.473 15.1548C147.715 13.7943 152.234 13.0655 156.742 13.0655ZM80.0532 290.156C80.0575 290.14 80.0631 290.121 80.0683 290.104C80.0651 290.098 80.061 290.092 80.0579 290.086C80.055 290.109 80.0536 290.133 80.0532 290.156ZM156.742 0.000261305C150.911 0.000261305 145.11 0.912345 139.501 2.7113C130.395 5.63177 121.903 10.7827 114.139 18.0818C106.554 12.8994 97.3003 9.3031 86.7591 7.49735C79.5382 6.26047 73.1803 5.6592 67.3217 5.6592C57.9532 5.6592 49.5242 7.24558 42.2688 10.3743C28.1016 16.4839 23.9932 25.6745 23.0415 32.3086C21.7738 41.1446 25.3108 50.4373 33.0055 58.51C27.1358 63.7326 22.0676 69.55 17.988 75.7894C7.56969 91.7231 3.46073 110.42 6.40872 127.838C-1.92443 144.201 -2.21001 164.961 6.01547 182.449C10.6788 192.363 17.8021 201.166 26.9556 208.422C25.5892 210.562 24.3244 212.779 23.166 215.065C21.5679 217.354 20.0126 219.684 18.531 222.008C18.3605 222.275 18.1746 222.548 17.9859 222.828C16.1839 225.502 13.1678 229.977 13.2015 236.167C13.2178 239.195 13.9335 241.811 14.9118 244.019C13.7498 254.039 15.7075 262.824 20.6401 269.578C26.3813 277.44 35.879 282.134 46.0462 282.134C47.0975 282.134 48.1615 282.083 49.2086 281.984C49.4831 281.958 49.7567 281.929 50.0303 281.897C50.9068 284.069 52.0531 286.073 53.4691 287.909C54.1751 290.108 55.0213 292.197 56.0273 294.229C65.8456 314.062 88.9107 317.09 97.5936 318.231C100.712 318.64 103.772 318.848 106.688 318.848C112.734 318.848 118.404 317.959 123.581 316.203C124.75 316.978 125.987 317.664 127.287 318.255C132.699 320.715 138.079 321 141.654 321C143.08 321 144.41 320.953 145.697 320.907L145.796 320.903C150.865 320.723 155.382 320.362 159.608 319.8C172.22 318.123 181.662 314.894 189.325 309.638C196.243 304.892 200.698 298.609 202.208 291.467C203.397 285.848 202.769 280.619 201.902 276.29C212.36 274.177 221.37 266.502 225.455 256.208C228.807 247.758 228.435 237.981 224.349 227.123C224.345 227.1 224.341 227.077 224.336 227.054C222.903 219.674 219.14 213.532 216.116 208.597C214.785 206.425 213.405 204.32 212.02 202.3C216.602 198.594 220.582 194.496 224.033 189.944C234.329 176.367 238.312 158.675 234.686 142.618C232.345 132.248 226.954 123.376 219.174 116.862C219.014 115.135 218.685 113.739 218.48 112.868C213.998 93.8717 204.459 76.4697 191.071 62.5201C193.115 60.7299 194.692 58.8489 195.895 57.1031C201.318 49.2368 202.858 39.662 200.229 30.1423C198.02 22.1396 193.057 14.8459 186.254 9.60451C178.1 3.32131 167.895 0.000261305 156.742 0.000261305Z" fill="white"/>
<path d="M201.01 211.901C198.01 207.845 194.782 203.977 191.476 200.175C200.022 195.702 207.715 189.883 213.664 182.038C227.595 163.667 226.892 134.261 204.496 122.696C204.274 122.581 204.053 122.486 203.833 122.393C195.072 80.9741 158.121 50.39 115.78 50.0466C73.1738 49.7012 35.6466 80.1827 26.4938 121.776C26.4323 122.055 26.3888 122.329 26.3545 122.599C11.738 136.309 9.4477 159.093 17.8128 176.877C24.4376 190.961 36.4958 201.071 50.3247 207.559C50.2222 207.646 50.1118 207.721 50.0187 207.822C40.6932 217.951 30.7287 229.017 28.2284 243.074C27.1113 249.355 27.2526 256.503 31.1653 261.861C35.0225 267.143 41.5603 269.587 47.9868 268.977C54.0037 268.406 59.2176 265.579 63.8982 261.98C63.6657 271.018 63.5449 280.006 67.7108 288.422C73.5768 300.271 87.2306 303.692 99.2942 305.276C106.582 306.233 114.175 305.985 121.068 303.214C121.193 303.163 121.307 303.098 121.426 303.039C122.615 302.898 123.622 302.216 124.408 301.159C124.89 300.51 125.313 299.834 125.707 299.144C127.075 302.205 129.245 304.796 132.678 306.357C136.667 308.17 141.062 307.999 145.341 307.846C149.542 307.697 153.733 307.403 157.901 306.849C166.18 305.748 174.976 303.654 181.971 298.856C185.537 296.41 188.544 293.113 189.465 288.757C190.403 284.318 189.398 279.859 188.393 275.528C187.24 270.557 186.042 265.611 184.636 260.729C188.897 263.462 194.171 264.483 199.204 263.508C205.614 262.266 210.973 257.371 213.35 251.379C216.154 244.315 214.185 236.443 211.365 229.729C208.686 223.352 205.117 217.452 201.01 211.901ZM80.076 290.104C80.0708 290.121 80.0652 290.141 80.0609 290.156C80.0613 290.133 80.0626 290.109 80.0655 290.087C80.0687 290.093 80.0727 290.098 80.076 290.104Z" fill="#FF7DAF"/>
<path d="M101.783 133.492C101.778 133.451 101.774 133.41 101.77 133.369C101.681 132.48 97.8767 133.228 97.9931 134.384L99.249 146.836C99.3386 147.725 103.142 146.977 103.026 145.821C102.614 141.718 102.202 137.615 101.791 133.512C101.79 133.505 101.784 133.5 101.783 133.492Z" fill="#1E1E1E"/>
<path d="M146.818 144.602C146.461 142.486 146.188 140.36 145.985 138.226C146.094 138.037 146.154 137.823 146.123 137.576C145.981 136.443 145.839 135.31 145.697 134.177C145.684 133.888 145.662 133.6 145.651 133.311C145.633 132.832 145.399 132.471 145.056 132.242C144.722 131.935 144.249 131.773 143.733 131.822C142.998 131.892 141.619 132.442 141.668 133.41C141.875 137.503 142.325 141.581 143.041 145.617C143.206 146.547 144.579 146.708 145.299 146.49C146.144 146.233 146.984 145.579 146.818 144.602Z" fill="#1E1E1E"/>
<path d="M131.472 159.768C131.35 159.703 131.221 159.671 131.084 159.67C130.895 159.643 130.706 159.643 130.516 159.669C130.272 159.69 130.032 159.73 129.796 159.791C129.54 159.842 129.29 159.913 129.045 160.004C128.9 160.063 128.755 160.122 128.609 160.181C128.526 160.217 128.458 160.277 128.38 160.321C128.153 160.38 127.93 160.453 127.714 160.548C127.513 160.621 127.321 160.714 127.137 160.826C126.966 160.917 126.826 161.043 126.717 161.202C126.667 161.369 126.637 161.559 126.682 161.731C126.728 161.91 126.84 162.047 126.958 162.186C127.245 162.523 127.729 162.619 128.15 162.625C128.664 162.633 129.172 162.54 129.667 162.415C130.025 162.325 130.41 162.192 130.744 162.032C131.032 161.894 131.237 161.775 131.483 161.577C131.582 161.497 131.664 161.387 131.742 161.287C131.81 161.2 131.859 161.099 131.888 160.992C131.929 160.836 131.957 160.667 131.944 160.505C131.934 160.38 131.899 160.255 131.835 160.146C131.749 159.999 131.624 159.851 131.472 159.768Z" fill="#1E1E1E"/>
<path d="M178.318 19.9628C168.527 12.4182 154.982 11.4661 143.48 15.1548C130.08 19.4525 119.563 29.6268 111.679 40.9775C111.605 41.0842 111.552 41.1902 111.502 41.2958C109.466 40.9685 107.961 43.9277 110.083 44.9551C122.577 51.0066 135.925 54.9835 149.693 56.721C156.339 57.5597 163.266 58.0993 169.955 57.4842C175.981 56.93 181.631 54.8218 185.18 49.6753C192.093 39.6477 187.207 26.8118 178.318 19.9628Z" fill="#EA4335"/>
<path d="M150.353 73.6851C143.348 58.7317 130.33 41.8812 113.872 42.7558C113.526 42.7741 113.18 42.7985 112.835 42.8187C111.704 43.1448 110.537 43.5628 110.195 43.8449C108.711 45.0659 107.265 46.3327 105.859 47.6425C100.234 52.8821 95.2493 58.81 91.0422 65.2484C88.3077 69.4332 85.9018 73.8342 83.8637 78.4008C78.0112 91.6371 75.9947 121.924 75.8557 123.789C102.718 121.855 129.671 121.176 156.597 121.771C158.544 105.504 157.299 88.5097 150.353 73.6851Z" fill="#34A853"/>
<path d="M83.8635 78.4007C85.8857 73.8271 88.3076 69.4331 91.0421 65.2483C95.2492 58.8099 100.234 52.8821 105.859 47.6424C107.265 46.3326 108.711 45.0657 110.195 43.8449C110.537 43.5629 111.703 43.1447 112.834 42.8186C96.9424 43.7438 81.0289 46.5394 66.3865 52.7845C51.4255 59.1654 37.8096 69.3202 28.8971 82.9512C19.9847 96.582 16.1247 113.832 20.1033 129.634C38.6155 127.073 57.2119 125.132 75.8513 123.789C75.8528 123.758 75.8534 123.743 75.8558 123.693C75.8693 123.423 77.554 92.5379 83.8635 78.4007Z" fill="#4285F4"/>
<path d="M205.803 115.875C200.737 94.4036 187.989 74.8379 170.412 61.5568C157.756 51.9941 142.667 45.7428 127.005 43.3752C123.07 42.7804 119.098 42.4305 115.119 42.3352C114.748 42.3263 113.804 42.5392 112.834 42.8185C113.18 42.7984 113.526 42.774 113.871 42.7557C130.329 41.8811 143.348 58.7316 150.353 73.685C157.299 88.5097 158.544 105.503 156.597 121.771C170.38 122.075 184.157 122.697 197.911 123.667C200.754 123.868 204.217 123.775 205.646 121.303C206.575 119.697 206.229 117.682 205.803 115.875Z" fill="#F9AB00"/>
<path d="M116.516 38.9414C116.548 38.5682 116.444 38.1627 116.14 37.7532C108.604 27.596 96.7356 22.4595 84.571 20.3757C72.5051 18.309 58.9275 17.4166 47.4277 22.3759C42.3465 24.5672 36.8028 28.2286 35.9508 34.1682C35.1203 39.957 38.765 45.6895 42.6198 49.6743C50.95 58.2853 63.4069 61.3037 75.0232 59.9109C90.2285 58.0877 103.43 50.055 116.169 42.09C117.437 41.2968 117.289 39.7973 116.516 38.9414Z" fill="#EA4335"/>
<path d="M211.549 229.549C210.566 224.487 207.662 219.752 205.005 215.415C201.783 210.158 198.146 205.175 194.414 200.274C194.258 200.069 194.078 199.915 193.889 199.79C193.872 199.777 193.854 199.765 193.837 199.753C193.69 199.663 193.538 199.591 193.381 199.543C192.851 199.354 192.251 199.372 191.715 199.647C188.949 201.065 186.314 202.742 183.846 204.64C169.096 212.02 153.173 216.922 136.84 219.276C117.886 222.008 98.3519 221.217 79.6974 216.885C68.5784 214.303 58.069 210.249 47.6367 205.666C46.526 205.178 45.4885 205.729 44.9764 206.538C44.8175 206.632 44.6613 206.747 44.5144 206.907C40.4284 211.357 37.0371 216.386 34.3939 221.787C34.379 221.808 34.3637 221.829 34.3489 221.849C32.6846 224.209 31.0748 226.607 29.5227 229.042C28.1955 231.124 26.2294 233.497 26.2435 236.096C26.2578 238.757 28.1178 240.966 29.7006 242.923C31.2517 244.84 32.9493 246.639 34.7711 248.3C38.3479 251.561 42.3732 254.351 46.7023 256.512C51.5359 258.925 56.6974 260.592 62.0349 261.404C60.3106 269.071 59.6823 278.165 67.0969 282.975C70.8984 285.441 76.0036 286.31 80.3614 287.234C85.1283 288.244 89.9643 288.946 94.8158 289.39C114.462 291.189 134.227 288.513 153.399 284.261C164.563 281.785 175.598 278.764 186.626 275.745C186.871 275.678 187.071 275.572 187.248 275.449C188.42 275.26 188.926 274.136 188.756 273.142C188.813 272.809 188.79 272.463 188.696 272.141C188.697 272.119 188.703 272.102 188.703 272.08C188.773 267.359 188.064 262.673 186.582 258.202C190.383 256.782 193.836 254.645 197.059 252.154C200.802 249.263 204.666 246.107 207.817 242.563C211.122 238.845 212.507 234.484 211.549 229.549ZM138.136 283.21C138.227 283.212 138.318 283.215 138.41 283.217C137.941 283.297 137.471 283.374 137.002 283.452C137.382 283.377 137.757 283.287 138.136 283.21ZM206.08 238.54C206.135 238.475 206.189 238.408 206.243 238.342C206.183 238.433 206.125 238.525 206.063 238.616C206.069 238.59 206.074 238.565 206.08 238.54Z" fill="#1E1E1E"/>
<path d="M155.355 223.909L151.157 228.543C150.276 229.516 150.348 231.02 151.319 231.904C152.289 232.787 153.791 232.715 154.672 231.742L158.87 227.108C159.751 226.135 159.679 224.63 158.708 223.747C157.738 222.864 156.236 222.936 155.355 223.909Z" fill="#E94335"/>
<path d="M153.448 232.628C152.675 232.793 151.837 232.597 151.209 232.026C150.173 231.082 150.096 229.471 151.036 228.432L155.234 223.798C156.175 222.761 157.783 222.683 158.819 223.625C159.854 224.568 159.932 226.18 158.991 227.218L154.793 231.852C154.423 232.261 153.95 232.521 153.448 232.628ZM156.648 223.344C156.211 223.437 155.799 223.663 155.477 224.019L151.279 228.653C150.46 229.557 150.527 230.961 151.429 231.782C152.331 232.603 153.732 232.535 154.551 231.631L158.749 226.997C159.568 226.093 159.5 224.69 158.598 223.869C158.051 223.371 157.321 223.2 156.648 223.344Z" fill="#EA4335"/>
<path d="M153.867 227.964C152.666 227.436 151.266 227.985 150.74 229.189C150.215 230.392 150.762 231.795 151.963 232.323L157.683 234.833C158.884 235.36 160.283 234.812 160.809 233.608C161.335 232.404 160.788 231.001 159.587 230.474L153.867 227.964Z" fill="#4284F3"/>
<path d="M159.161 235.141C158.66 235.248 158.122 235.205 157.617 234.984L151.897 232.473C150.615 231.911 150.029 230.408 150.59 229.123C151.152 227.838 152.652 227.252 153.933 227.813L159.653 230.324C160.935 230.886 161.521 232.389 160.96 233.674C160.619 234.453 159.933 234.976 159.161 235.141ZM150.891 229.255C150.402 230.373 150.912 231.682 152.029 232.172L157.749 234.683C158.865 235.173 160.17 234.661 160.659 233.542C161.148 232.423 160.638 231.114 159.521 230.625L153.801 228.114C152.686 227.624 151.38 228.136 150.891 229.255Z" fill="#4285F4"/>
<path d="M168.099 224.917L163.901 229.551C163.02 230.523 163.092 232.028 164.063 232.912C165.033 233.795 166.535 233.722 167.416 232.75L171.614 228.116C172.495 227.143 172.423 225.638 171.452 224.755C170.482 223.871 168.981 223.944 168.099 224.917Z" fill="#F8AA00"/>
<path d="M166.192 233.636C165.419 233.801 164.581 233.605 163.953 233.033C163.451 232.576 163.157 231.951 163.124 231.272C163.092 230.594 163.324 229.943 163.78 229.44L167.978 224.806C168.919 223.769 170.526 223.691 171.562 224.633C172.598 225.576 172.676 227.188 171.735 228.226L167.537 232.86C167.167 233.269 166.693 233.528 166.192 233.636ZM169.392 224.351C168.955 224.445 168.543 224.671 168.221 225.027L164.023 229.661C163.626 230.099 163.423 230.666 163.451 231.257C163.48 231.848 163.736 232.392 164.173 232.79C165.075 233.611 166.475 233.544 167.295 232.639L171.492 228.005C172.312 227.101 172.244 225.697 171.342 224.876C170.795 224.379 170.065 224.207 169.392 224.351Z" fill="#F9AB00"/>
<path d="M165.088 221.825C163.888 221.298 162.488 221.847 161.962 223.05C161.436 224.254 161.983 225.657 163.184 226.184L168.904 228.695C170.105 229.222 171.505 228.674 172.031 227.47C172.557 226.266 172.009 224.863 170.809 224.336L165.088 221.825Z" fill="#34A753"/>
<path d="M170.383 229.003C169.881 229.11 169.343 229.067 168.839 228.846L163.119 226.335C162.498 226.063 162.02 225.564 161.773 224.931C161.526 224.298 161.54 223.607 161.812 222.985C162.374 221.7 163.872 221.113 165.154 221.675L170.875 224.186C172.156 224.748 172.742 226.251 172.181 227.536C171.841 228.315 171.155 228.837 170.383 229.003ZM162.112 223.116C161.875 223.658 161.863 224.26 162.078 224.811C162.293 225.363 162.709 225.797 163.25 226.034L168.97 228.545C170.086 229.034 171.392 228.523 171.881 227.404C172.37 226.285 171.859 224.976 170.743 224.486L165.023 221.976C163.907 221.486 162.601 221.997 162.112 223.116Z" fill="#34A853"/>
</g>
<defs>
<clipPath id="clip0_40_12766">
<rect width="236" height="321" fill="white"/>
</clipPath>
</defs>
</svg>
